<svg xmlns="http://www.w3.org/2000/svg" xmlns:xlink="http://www.w3.org/1999/xlink" width="1915.9" height="896" viewBox="0 0 1915.9 896"><g opacity=".8"><defs><filter id="a" filterUnits="userSpaceOnUse" x="-17.14" y="260.164" width="1865.072" height="508.607"><feColorMatrix values="1 0 0 0 0 0 1 0 0 0 0 0 1 0 0 0 0 0 1 0"/></filter></defs><mask maskUnits="userSpaceOnUse" x="-17.14" y="260.164" width="1865.072" height="508.607" id="c"><g filter="url(#a)"><linearGradient id="b" gradientUnits="userSpaceOnUse" x1="803" y1="251" x2="803" y2="525" gradientTransform="matrix(1 0 0 -1 84 871)"><stop offset=".021" stop-color="#fff" stop-opacity="0"/><stop offset=".509" stop-color="#fff" stop-opacity=".9"/><stop offset="1" stop-color="#fff"/></linearGradient><path fill="url(#b)" d="M128 346h1518v274H128z"/></g></mask><g mask="url(#c)"><defs><path id="d" d="M1464.219 569.169c-3.438.035-39.115 13.601-54.733 13.601-15.615 0-43.341-37.114-57.722-37.114-14.38 0 6.483.834-38.083.239-44.563-.596-164.729-179.949-175.681-177.147-4.237 1.084-31.593 48.775-42.569 52.039-6.132 1.822-17.479 10.212-31.092 21.307 69.011-.851 37.277 67.568 23.601 79.045-25.16 21.112-112.739-5.369-122.854-5.383-10.107 0-9.199-4.306-19.402-4.306-10.205 0-56.088 45.732-63.991 45.223-7.906-.511-7.753-6.518-19.515-6.537-4.767-.008-16.527 9.436-35.258 28.287-10.829-6.648-16.354-9.418-16.354-9.418-3.438.035-39.115 13.684-54.733 13.684-15.616 0-43.341-37.073-57.721-37.073s6.482.854-38.083.262c-44.564-.596-104.8-36.136-111.681-61.778-5.042-18.791-36.948 27.353-62.861 27.353-25.914 0-80.412-106.535-103.655-106.535-17.723 0-60.289 110.839-70.399 110.839-10.108 0-9.199-4.304-19.402-4.304-10.205 0-56.087 45.732-63.992 45.223-7.905-.511-7.751-6.351-19.513-6.37-7.843-.013-34.581 25.7-80.216 76.7h1421.162c-55.988-43.006-85.253-57.837-85.253-57.837z"/></defs><clipPath id="e"><use xlink:href="#d" overflow="visible"/></clipPath><g clip-path="url(#e)"><path fill="#FFF" d="M1072.177 553.224l48.555 8.581-24.89-43.951-48.555-8.581zm-49.288-87.029l-48.272-8.529 24.397 43.078 48.273 8.529zm98.611 174.1l48.555 8.581-24.891-43.95-48.555-8.581zm-49.288-87.027l-48.273-8.532 24.398 43.079 48.272 8.53zm146.08 104.095l48.556 8.581-24.891-43.95-48.555-8.581zm-49.288-87.027l-48.272-8.531 24.397 43.079 48.273 8.529z"/><path fill="#FFF" d="M1169.01 570.348l48.554 8.581-24.89-43.95-48.555-8.583zm-49.287-87.028l-48.274-8.531 24.399 43.079 48.271 8.528zM973.684 379.292l48.555 8.581-24.89-43.95-48.555-8.581zm-49.288-87.028l-48.272-8.53 24.397 43.078 48.273 8.53z"/><path fill="#FFF" d="M1023.007 466.363l48.555 8.581-24.89-43.95-48.555-8.581zm-49.288-87.027l-48.272-8.531 24.397 43.079 48.273 8.529zm146.08 104.096l48.555 8.581-24.89-43.951-48.555-8.581zm-49.287-87.028l-48.273-8.531 24.398 43.079 48.272 8.529z"/><path fill="#FFF" d="M1070.518 396.416l48.554 8.581-24.89-43.95-48.555-8.581zm-49.289-87.027l-48.272-8.532 24.397 43.081 48.273 8.528zm146.07 104.076l48.555 8.581-24.891-43.95-48.555-8.581zm-49.288-87.027l-48.273-8.532 24.398 43.079 48.272 8.53zm98.61 174.098l48.555 8.582-24.891-43.951-48.555-8.581z"/><path fill="#FFF" d="M1167.334 413.509l-48.273-8.531 24.398 43.079 48.271 8.529zm146.08 104.095l48.555 8.584-24.891-43.953-48.555-8.581zm-49.288-87.027l-48.272-8.531 24.397 43.079 48.272 8.529z"/><path fill="#FFF" d="M1264.131 430.589l48.557 8.581-24.892-43.95-48.555-8.581zm-49.287-87.028l-48.273-8.53 24.398 43.078 48.272 8.53zM878.48 519.065l48.555 8.581-24.89-43.95-48.555-8.581zm-49.288-87.028l-48.272-8.529 24.397 43.078 48.273 8.529zm98.611 174.101l48.554 8.58-24.89-43.949-48.555-8.581zm-49.287-87.028l-48.274-8.531 24.399 43.078 48.271 8.531zm146.08 104.096l48.554 8.58-24.89-43.949-48.555-8.582zm-49.288-87.027l-48.273-8.533 24.398 43.08 48.272 8.529z"/><path fill="#FFF" d="M975.312 536.19l48.556 8.581-24.889-43.95-48.556-8.582zm-49.287-87.028l-48.272-8.531 24.397 43.079 48.273 8.529zM734.074 571.868l48.555 8.582-24.891-43.951-48.554-8.581zm-49.287-87.028l-48.273-8.529 24.398 43.078 48.272 8.529zm98.609 174.1l48.556 8.581-24.89-43.95-48.555-8.582zm-49.287-87.027l-48.272-8.531 24.397 43.078 48.273 8.529zm146.08 104.096l48.555 8.58-24.89-43.949-48.555-8.582zm-49.287-87.028l-48.273-8.531 24.398 43.078 48.272 8.53z"/><path fill="#FFF" d="M830.907 588.993l48.556 8.58-24.891-43.949-48.554-8.582zm-49.288-87.029l-48.271-8.53 24.396 43.079 48.274 8.529zm484.295 85.607l48.556 8.58-24.891-43.949-48.555-8.582zm-49.287-87.029l-48.273-8.529 24.398 43.078 48.272 8.529zm98.61 174.1l48.556 8.582-24.891-43.953-48.554-8.579zm-49.288-87.028l-48.271-8.531 24.396 43.08 48.274 8.529zm146.08 104.096l48.556 8.582-24.891-43.951-48.554-8.58zm-49.287-87.027l-48.272-8.532 24.397 43.08 48.273 8.53z"/><path fill="#FFF" d="M1362.748 604.694l48.555 8.582-24.891-43.951-48.555-8.58zm-49.288-87.027l-48.272-8.531 24.397 43.08 48.272 8.529zm47.52-69.946l48.555 8.581-24.89-43.95-48.555-8.581zm-49.288-87.028l-48.272-8.531 24.397 43.079 48.273 8.53zm98.611 174.1l48.554 8.582-24.89-43.952-48.555-8.581zm-49.287-87.028l-48.274-8.532 24.399 43.079 48.271 8.53zm146.08 104.096l48.554 8.582-24.89-43.951-48.555-8.582zm-49.288-87.028l-48.273-8.531 24.398 43.079 48.272 8.529z"/><path fill="#FFF" d="M1457.812 464.845l48.556 8.581-24.889-43.95-48.556-8.581zm-49.287-87.029l-48.272-8.529 24.397 43.078 48.273 8.53zm51.071 244.012l48.555 8.58-24.89-43.949-48.555-8.582zm-49.287-87.029l-48.273-8.529 24.398 43.078 48.272 8.529zm98.61 174.099l48.556 8.582-24.891-43.951-48.555-8.58zm-49.288-87.027l-48.272-8.531 24.397 43.08 48.273 8.529zm146.08 104.096l48.556 8.582-24.891-43.951-48.555-8.58zm-49.287-87.028l-48.273-8.531 24.398 43.08 48.272 8.53z"/><path fill="#FFF" d="M1556.43 638.951l48.554 8.582-24.89-43.951-48.555-8.58zm-49.288-87.027l-48.273-8.531 24.398 43.08 48.272 8.529zm47.504-69.981l48.555 8.582-24.89-43.951-48.555-8.58zm-49.288-87.027l-48.272-8.53 24.397 43.079 48.273 8.529zm98.611 174.101l48.554 8.582-24.89-43.953-48.555-8.581zm-49.287-87.029l-48.274-8.531 24.399 43.079 48.271 8.529zm146.08 104.097l48.554 8.582-24.89-43.951-48.555-8.582zm-49.288-87.029l-48.273-8.531 24.398 43.079 48.272 8.53z"/><path fill="#FFF" d="M1651.479 499.067l48.554 8.582-24.888-43.95-48.556-8.582zm-49.288-87.027l-48.272-8.53 24.397 43.078 48.273 8.529zm51.071 244.012l48.554 8.58-24.889-43.949-48.555-8.582zm-49.287-87.031l-48.273-8.528 24.398 43.078 48.272 8.53zm98.609 174.101l48.557 8.582-24.891-43.951-48.555-8.58zm-49.287-87.027l-48.272-8.533 24.397 43.082 48.273 8.529zm146.08 104.095l48.555 8.581-24.891-43.95-48.555-8.58zm-49.287-87.027l-48.274-8.531 24.399 43.08 48.271 8.529z"/><path fill="#FFF" d="M1750.096 673.175l48.554 8.582-24.89-43.951-48.555-8.58zm-49.289-87.029l-48.272-8.53 24.398 43.08 48.272 8.53z"/><g fill="#4D86FC"><path d="M1022.889 466.195l24.398 43.078 48.555 8.581-24.399-43.079zm-23.875 34.549l24.89 43.952 48.273 8.528-24.89-43.951zm73.198 52.524l24.397 43.077 48.555 8.581-24.397-43.079zm-23.875 34.547l24.892 43.953 48.271 8.527-24.891-43.95zm120.667-17.479l24.398 43.077 48.555 8.581-24.398-43.079z"/><path d="M1145.129 604.884l24.891 43.952 48.272 8.527-24.89-43.95zm-25.406-121.564l24.396 43.076 48.555 8.583-24.397-43.08zm-23.875 34.548l24.89 43.952 48.272 8.528-24.891-43.952zM924.396 292.264l24.398 43.078 48.555 8.581-24.398-43.079zm-23.875 34.548l24.891 43.953 48.272 8.527-24.89-43.95zm73.198 52.524l24.398 43.077 48.555 8.581-24.399-43.079zm-23.875 34.548l24.89 43.952 48.273 8.527-24.89-43.95zm120.668-17.48l24.397 43.077 48.555 8.581-24.398-43.079z"/><path d="M1046.637 430.952l24.89 43.952 48.272 8.528-24.89-43.951zm-25.408-121.563l24.398 43.077 48.555 8.581-24.398-43.079zm-23.875 34.549l24.891 43.951 48.273 8.527-24.891-43.95zm120.657-17.5l24.397 43.077 48.555 8.581-24.399-43.079z"/><path d="M1094.136 360.985l24.89 43.953 48.273 8.527-24.891-43.95zm73.198 52.524l24.396 43.077 48.555 8.581-24.396-43.079zm-23.875 34.548l24.891 43.952 48.271 8.527-24.891-43.95zm120.667-17.48l24.397 43.077 48.555 8.581-24.397-43.079z"/><path d="M1240.251 465.125l24.891 43.952 48.272 8.527-24.891-43.95zm-25.407-121.564l24.397 43.078 48.555 8.581-24.398-43.079zm-23.875 34.548l24.89 43.953 48.272 8.527-24.89-43.95zm-361.777 53.928l24.398 43.078 48.555 8.581-24.398-43.079zm-23.875 34.549l24.891 43.952 48.272 8.527-24.89-43.95zm73.199 52.524l24.396 43.078 48.555 8.581-24.397-43.081z"/><path d="M854.641 553.657l24.89 43.953 48.272 8.528-24.891-43.95zm120.667-17.478l24.397 43.076 48.555 8.582-24.398-43.08zm-23.875 34.547l24.89 43.953 48.273 8.527-24.891-43.951zm-25.408-121.564l24.398 43.077 48.556 8.582-24.399-43.08zM902.15 483.71l24.891 43.953 48.271 8.527-24.889-43.951zm-217.363 1.13l24.397 43.078 48.554 8.581-24.396-43.079zm-23.875 34.549l24.891 43.952 48.271 8.527-24.89-43.95zm73.197 52.524l24.398 43.076 48.555 8.582-24.398-43.08zm-23.875 34.547l24.891 43.953 48.271 8.527-24.889-43.951zm120.668-17.479l24.397 43.077 48.555 8.582-24.397-43.08z"/><path d="M807.027 623.528l24.891 43.953 48.271 8.528-24.89-43.951zm-25.408-121.564l24.399 43.078 48.554 8.582-24.398-43.08zm-23.875 34.549l24.891 43.953 48.272 8.527-24.889-43.951zm458.883-35.971l24.397 43.078 48.555 8.582-24.397-43.08zm-23.875 34.549l24.891 43.953 48.271 8.527-24.89-43.951zm73.197 52.523l24.399 43.078 48.554 8.579-24.398-43.077z"/><path d="M1242.074 622.163l24.891 43.951 48.272 8.528-24.889-43.95zm120.668-17.48l24.398 43.078 48.554 8.58-24.397-43.078zm-23.875 34.548l24.891 43.952 48.271 8.527-24.889-43.949zm-25.407-121.564l24.397 43.078 48.555 8.58-24.397-43.078zm-23.875 34.549l24.891 43.951 48.272 8.527-24.891-43.949zm22.107-191.523l24.398 43.078 48.555 8.581-24.398-43.08zm-23.875 34.548l24.891 43.952 48.272 8.528-24.89-43.95zm73.199 52.524l24.396 43.077 48.555 8.581-24.397-43.079zm-23.875 34.547l24.89 43.954 48.272 8.527-24.891-43.951zm120.667-17.479l24.397 43.077 48.555 8.582-24.398-43.08z"/><path d="M1433.933 499.381l24.89 43.953 48.273 8.527-24.891-43.951zm-25.408-121.565l24.398 43.079 48.556 8.581-24.399-43.08zm-23.875 34.549l24.891 43.952 48.271 8.528-24.889-43.95zm25.659 122.434l24.397 43.078 48.555 8.582-24.398-43.08zm-23.875 34.549l24.89 43.953 48.272 8.527-24.89-43.951zm73.197 52.523l24.398 43.078 48.555 8.58-24.398-43.078zm-23.875 34.549l24.89 43.951 48.273 8.527-24.89-43.949zm120.668-17.481l24.397 43.079 48.555 8.58-24.397-43.078z"/><path d="M1532.549 673.488l24.89 43.951 48.272 8.528-24.89-43.949zm-25.407-121.564l24.397 43.078 48.555 8.58-24.398-43.078zm-23.875 34.549l24.89 43.951 48.273 8.527-24.891-43.949zm22.091-191.557l24.398 43.078 48.555 8.58-24.398-43.078z"/><path d="M1481.483 429.465l24.891 43.951 48.272 8.527-24.89-43.949zm73.199 52.523l24.396 43.077 48.555 8.581-24.397-43.08z"/><path d="M1530.807 516.536l24.89 43.953 48.272 8.528-24.891-43.952zm120.667-17.48l24.397 43.078 48.555 8.582-24.399-43.08zm-23.875 34.548l24.89 43.954 48.273 8.527-24.891-43.951zm-25.408-121.564l24.398 43.077 48.556 8.582-24.399-43.08zm-23.875 34.548l24.891 43.953 48.272 8.526-24.89-43.95zm25.659 122.433l24.397 43.08 48.555 8.582-24.398-43.079zm-23.875 34.55l24.89 43.953 48.272 8.528-24.89-43.951zm73.197 52.524l24.398 43.078 48.555 8.58-24.398-43.078zm-23.875 34.549l24.89 43.951 48.272 8.527-24.889-43.949zm120.668-17.481l24.396 43.078 48.555 8.58-24.396-43.078z"/><path d="M1726.215 707.712l24.89 43.951 48.272 8.527-24.891-43.949zm-25.408-121.566l24.398 43.08 48.555 8.58-24.399-43.077zm-23.874 34.55l24.889 43.95 48.274 8.529-24.891-43.949z"/></g><path fill="#FFF" d="M418.523 553.224l48.555 8.581-24.89-43.951-48.555-8.581zm-49.288-87.029l-48.272-8.529 24.397 43.078 48.273 8.529zm98.611 174.1l48.555 8.581-24.891-43.95-48.554-8.581zm-49.288-87.027l-48.272-8.532 24.397 43.079 48.273 8.53zm146.08 104.095l48.555 8.581-24.89-43.95-48.555-8.581zm-49.287-87.027l-48.273-8.531 24.398 43.079 48.272 8.529z"/><path fill="#FFF" d="M515.356 570.348l48.555 8.581-24.89-43.95-48.555-8.583zm-49.288-87.028l-48.272-8.531 24.397 43.079 48.273 8.528zM320.03 379.292l48.555 8.581-24.89-43.95-48.555-8.581zm-49.287-87.028l-48.273-8.53 24.398 43.078 48.272 8.53z"/><path fill="#FFF" d="M369.353 466.363l48.555 8.581-24.89-43.95-48.555-8.581zm-49.288-87.027l-48.272-8.531 24.397 43.079 48.273 8.529zm146.081 104.096l48.555 8.581-24.891-43.951-48.555-8.581zm-49.288-87.028l-48.273-8.531 24.398 43.079 48.272 8.529z"/><path fill="#FFF" d="M416.863 396.416l48.555 8.581-24.89-43.95-48.555-8.581zm-49.287-87.027l-48.273-8.532 24.398 43.081 48.272 8.528zm146.069 104.076l48.555 8.581-24.891-43.95-48.555-8.581zm-49.288-87.027l-48.273-8.532 24.398 43.079 48.272 8.53zm98.61 174.098l48.554 8.582-24.889-43.951-48.555-8.581z"/><path fill="#FFF" d="M513.68 413.509l-48.273-8.531 24.398 43.079 48.272 8.529zm146.08 104.095l48.554 8.584-24.89-43.953-48.555-8.581zm-49.287-87.027l-48.273-8.531 24.398 43.079 48.271 8.529z"/><path fill="#FFF" d="M610.479 430.589l48.554 8.581-24.89-43.95-48.555-8.581zm-49.289-87.028l-48.273-8.53 24.398 43.078 48.273 8.53zM224.826 519.065l48.555 8.581-24.89-43.95-48.555-8.581zm-49.287-87.028l-48.273-8.529 24.398 43.078 48.272 8.529zm98.61 174.101l48.555 8.58-24.891-43.949-48.554-8.581zm-49.288-87.028l-48.272-8.531 24.397 43.078 48.273 8.531zm146.08 104.096l48.556 8.58-24.891-43.949-48.555-8.582zm-49.287-87.027l-48.273-8.533 24.398 43.08 48.272 8.529z"/><path fill="#FFF" d="M321.659 536.19l48.555 8.581-24.89-43.95-48.555-8.582zm-49.287-87.028l-48.273-8.531 24.398 43.079 48.272 8.529zM80.42 571.868l48.556 8.582-24.891-43.951-48.555-8.581zM31.133 484.84l-48.273-8.529 24.398 43.078 48.272 8.529zm98.61 174.1l48.555 8.581-24.89-43.95-48.555-8.582zm-49.287-87.027l-48.273-8.531 24.398 43.078 48.272 8.529zm146.08 104.096l48.555 8.58L250.2 640.64l-48.554-8.582zm-49.288-87.028l-48.272-8.531 24.397 43.078 48.273 8.53z"/><path fill="#FFF" d="M177.253 588.993l48.556 8.58-24.891-43.949-48.555-8.582zm-49.287-87.029l-48.273-8.53 24.398 43.079 48.272 8.529zm484.295 85.607l48.555 8.58-24.89-43.949-48.555-8.582zm-49.288-87.029l-48.272-8.529 24.397 43.078 48.273 8.529zm98.611 174.1l48.555 8.582-24.891-43.953-48.555-8.579zm-49.288-87.028l-48.273-8.531 24.398 43.08 48.272 8.529zm146.08 104.096l48.556 8.582-24.891-43.951-48.555-8.58zm-49.288-87.027l-48.272-8.532 24.397 43.08 48.273 8.53z"/><path fill="#FFF" d="M709.094 604.694l48.554 8.582-24.89-43.951-48.555-8.58zm-49.287-87.027l-48.274-8.531 24.399 43.08 48.271 8.529zm47.519-69.946l48.555 8.581-24.891-43.95-48.554-8.581zm-49.287-87.028l-48.273-8.531 24.398 43.079 48.272 8.53zm98.609 174.1l48.556 8.582-24.892-43.952-48.553-8.581zm-49.287-87.028l-48.272-8.532 24.397 43.079 48.273 8.53zm146.08 104.096l48.555 8.582-24.891-43.951-48.554-8.582zm-49.287-87.028l-48.273-8.531 24.398 43.079 48.272 8.529z"/><path fill="#FFF" d="M804.159 464.845l48.556 8.581-24.891-43.95-48.554-8.581zm-49.288-87.029l-48.271-8.529 24.396 43.078 48.274 8.53zm51.071 244.012l48.556 8.58-24.891-43.949-48.554-8.582zm-49.288-87.029l-48.271-8.529 24.396 43.078 48.274 8.529zm98.612 174.099l48.554 8.582-24.89-43.951-48.555-8.58zm-49.287-87.027l-48.274-8.531 24.399 43.08 48.271 8.529zm146.079 104.096l48.555 8.582-24.89-43.951-48.555-8.58zm-49.288-87.028l-48.272-8.531 24.397 43.08 48.273 8.53z"/><path fill="#FFF" d="M902.775 638.951l48.555 8.582-24.891-43.951-48.554-8.58z"/><path fill="#FFF" d="M853.488 551.924l-48.273-8.531 24.398 43.08 48.272 8.529zm47.504-69.981l48.555 8.582-24.891-43.951-48.554-8.58zm-49.287-87.027l-48.273-8.53 24.398 43.079 48.272 8.529zm98.609 174.101l48.556 8.582-24.891-43.953-48.554-8.581zm-49.287-87.029l-48.272-8.531 24.397 43.079 48.273 8.529zm146.08 104.097l48.556 8.582-24.892-43.951-48.554-8.582zm-49.287-87.029l-48.273-8.531 24.398 43.079 48.272 8.53z"/><path fill="#FFF" d="M997.825 499.067l48.555 8.582-24.89-43.95-48.554-8.582zm-49.288-87.027l-48.271-8.53 24.396 43.078 48.274 8.529zm51.07 244.012l48.556 8.58-24.89-43.949-48.554-8.582zm-49.287-87.031l-48.271-8.528 24.396 43.078 48.274 8.53zm98.611 174.101l48.556 8.582-24.89-43.951-48.556-8.58zm-49.286-87.027l-48.274-8.533 24.399 43.082 48.271 8.529zm146.079 104.095l48.554 8.581-24.89-43.95-48.555-8.58zm-49.286-87.027l-48.275-8.531 24.399 43.08 48.271 8.529z"/><path fill="#FFF" d="M1096.442 673.175l48.555 8.582-24.892-43.951-48.553-8.58zm-49.289-87.029l-48.272-8.53 24.398 43.08 48.273 8.53z"/><g fill="#4D86FC"><path d="M369.235 466.195l24.398 43.078 48.555 8.581-24.398-43.079zm-23.875 34.549l24.891 43.952 48.272 8.528-24.89-43.951zm73.198 52.524l24.398 43.077 48.554 8.581-24.397-43.079zm-23.875 34.547l24.891 43.953 48.272 8.527-24.89-43.95zm120.668-17.479l24.397 43.077 48.555 8.581-24.398-43.079z"/><path d="M491.476 604.884l24.89 43.952 48.272 8.527-24.89-43.95zM466.068 483.32l24.398 43.076 48.555 8.583-24.398-43.08zm-23.875 34.548l24.891 43.952 48.272 8.528-24.89-43.952zm-171.45-225.604l24.397 43.078 48.555 8.581-24.398-43.079zm-23.875 34.548l24.89 43.953 48.272 8.527-24.89-43.95zm73.197 52.524l24.398 43.077 48.555 8.581-24.398-43.079zm-23.875 34.548l24.891 43.952 48.272 8.527-24.89-43.95zm120.668-17.48l24.397 43.077 48.555 8.581-24.397-43.079z"/><path d="M392.983 430.952l24.891 43.952 48.272 8.528-24.891-43.951zm-25.407-121.563l24.397 43.077 48.555 8.581-24.398-43.079zm-23.875 34.549l24.89 43.951 48.272 8.527-24.89-43.95zm120.656-17.5l24.397 43.077 48.555 8.581-24.397-43.079z"/><path d="M440.482 360.985l24.891 43.953 48.272 8.527-24.891-43.95zm73.198 52.524l24.397 43.077 48.555 8.581-24.398-43.079z"/><path d="M489.805 448.057l24.89 43.952 48.272 8.527-24.89-43.95zm120.668-17.48l24.396 43.077 48.555 8.581-24.397-43.079zm-23.875 34.548l24.89 43.952 48.272 8.527-24.891-43.95zM561.19 343.561l24.398 43.078 48.555 8.581-24.399-43.079zm-23.875 34.548l24.891 43.953 48.273 8.527-24.891-43.95zm-361.776 53.928l24.397 43.078 48.555 8.581-24.398-43.079zm-23.875 34.549l24.89 43.952 48.272 8.527-24.89-43.95zm73.197 52.524l24.398 43.078 48.554 8.581-24.397-43.081z"/><path d="M200.986 553.657l24.891 43.953 48.272 8.528-24.89-43.95zm120.668-17.478l24.397 43.076 48.555 8.582-24.398-43.08zm-23.875 34.547l24.89 43.953 48.272 8.527-24.89-43.951zm-25.407-121.564l24.397 43.077 48.555 8.582-24.398-43.08zm-23.875 34.548l24.89 43.953 48.272 8.527-24.89-43.951zm-217.364 1.13l24.397 43.078 48.555 8.581-24.397-43.079zM7.258 519.389l24.89 43.952 48.272 8.527-24.89-43.95zm73.198 52.524l24.397 43.076 48.555 8.582-24.398-43.08zM56.581 606.46l24.89 43.953 48.272 8.527-24.89-43.951zm120.667-17.479l24.398 43.077 48.554 8.582-24.397-43.08z"/><path d="M153.373 623.528l24.891 43.953 48.272 8.528-24.89-43.951zm-25.407-121.564l24.397 43.078 48.555 8.582-24.397-43.08zm-23.875 34.549l24.89 43.953 48.272 8.527-24.89-43.951zm458.882-35.971l24.398 43.078 48.555 8.582-24.399-43.08zm-23.875 34.549l24.891 43.953 48.272 8.527-24.89-43.951zm73.198 52.523l24.397 43.078 48.555 8.579-24.397-43.077zm-23.875 34.549l24.891 43.951 48.272 8.528-24.891-43.95zm120.667-17.48l24.398 43.078 48.555 8.58-24.398-43.078z"/><path d="M685.213 639.231l24.891 43.952 48.272 8.527-24.89-43.949zm-25.406-121.564l24.396 43.078 48.555 8.58-24.397-43.078zm-23.875 34.549l24.89 43.951 48.272 8.527-24.891-43.949zm22.107-191.523l24.397 43.078 48.554 8.581-24.396-43.08zm-23.875 34.548l24.891 43.952 48.271 8.528-24.89-43.95zm73.197 52.524l24.398 43.077 48.553 8.581-24.396-43.079zm-23.875 34.547l24.891 43.954 48.271 8.527-24.889-43.951zm120.668-17.479l24.397 43.077 48.554 8.582-24.396-43.08z"/><path d="M780.279 499.381l24.891 43.953 48.271 8.527-24.89-43.951zm-25.408-121.565l24.399 43.079 48.554 8.581-24.398-43.08zm-23.875 34.549l24.891 43.952 48.272 8.528-24.889-43.95zm25.658 122.434l24.399 43.078 48.554 8.582-24.398-43.08zm-23.875 34.549l24.891 43.953 48.272 8.527-24.889-43.951zm73.2 52.523l24.396 43.078 48.555 8.58-24.398-43.078zm-23.875 34.549l24.889 43.951 48.273 8.527-24.891-43.949zm120.666-17.481l24.398 43.079 48.555 8.58-24.399-43.078z"/><path d="M878.895 673.488l24.89 43.951 48.273 8.528-24.89-43.949zm-25.407-121.564l24.397 43.078 48.554 8.58-24.396-43.078zm-23.875 34.549l24.891 43.951 48.271 8.527-24.89-43.949zm22.092-191.557l24.397 43.078 48.554 8.58-24.396-43.078zm-23.875 34.549l24.891 43.951 48.271 8.527-24.89-43.949zm73.197 52.523l24.398 43.077 48.554 8.581-24.397-43.08zm-23.875 34.548l24.891 43.953 48.271 8.528-24.889-43.952zm120.668-17.48l24.397 43.078 48.554 8.582-24.397-43.08z"/><path d="M973.945 533.604l24.891 43.954 48.271 8.527-24.89-43.951zM948.537 412.04l24.399 43.077 48.554 8.582-24.398-43.08zm-23.875 34.548l24.891 43.953 48.272 8.526-24.889-43.95zm25.658 122.433l24.399 43.08 48.554 8.582-24.398-43.079zm-23.875 34.55l24.891 43.953 48.271 8.528-24.888-43.951zm73.2 52.524l24.396 43.078 48.556 8.58-24.399-43.078zm-23.875 34.549l24.889 43.951 48.272 8.527-24.89-43.949zm120.668-17.481l24.395 43.078 48.555 8.58-24.397-43.078z"/><path d="M1072.562 707.712l24.89 43.951 48.272 8.527-24.891-43.949zm-25.409-121.566l24.399 43.08 48.553 8.58-24.397-43.077zm-23.874 34.55l24.89 43.95 48.273 8.529-24.89-43.949z"/></g></g><defs><path id="f" d="M1464.219 569.169c-3.438.035-39.115 13.601-54.733 13.601-15.615 0-43.341-37.114-57.722-37.114-14.38 0 6.483.834-38.083.239-44.563-.596-164.729-179.949-175.681-177.147-4.237 1.084-31.593 48.775-42.569 52.039-6.132 1.822-17.479 10.212-31.092 21.307 69.011-.851 37.277 67.568 23.601 79.045-25.16 21.112-112.739-5.369-122.854-5.383-10.107 0-9.199-4.306-19.402-4.306-10.205 0-56.088 45.732-63.991 45.223-7.906-.511-7.753-6.518-19.515-6.537-4.767-.008-16.527 9.436-35.258 28.287-10.829-6.648-16.354-9.418-16.354-9.418-3.438.035-39.115 13.684-54.733 13.684-15.616 0-43.341-37.073-57.721-37.073s6.482.854-38.083.262c-44.564-.596-104.8-36.136-111.681-61.778-5.042-18.791-36.948 27.353-62.861 27.353-25.914 0-80.412-106.535-103.655-106.535-17.723 0-60.289 110.839-70.399 110.839-10.108 0-9.199-4.304-19.402-4.304-10.205 0-56.087 45.732-63.992 45.223-7.905-.511-7.751-6.351-19.513-6.37-7.843-.013-34.581 25.7-80.216 76.7h1421.162c-55.988-43.006-85.253-57.837-85.253-57.837z"/></defs><clipPath id="g"><use xlink:href="#f" overflow="visible"/></clipPath><linearGradient id="h" gradientUnits="userSpaceOnUse" x1="1228.942" y1="414.437" x2="1228.942" y2="240.078" gradientTransform="matrix(1 0 0 -1 84 871)"><stop offset="0" stop-color="#fff" stop-opacity="0"/><stop offset="1" stop-color="#fff"/></linearGradient><circle opacity=".8" clip-path="url(#g)" fill="url(#h)" enable-background="new" cx="1312.943" cy="543.742" r="87.18"/><defs><path id="i" d="M1464.219 569.169c-3.438.035-39.115 13.601-54.733 13.601-15.615 0-43.341-37.114-57.722-37.114-14.38 0 6.483.834-38.083.239-44.563-.596-164.729-179.949-175.681-177.147-4.237 1.084-31.593 48.775-42.569 52.039-6.132 1.822-17.479 10.212-31.092 21.307 69.011-.851 37.277 67.568 23.601 79.045-25.16 21.112-112.739-5.369-122.854-5.383-10.107 0-9.199-4.306-19.402-4.306-10.205 0-56.088 45.732-63.991 45.223-7.906-.511-7.753-6.518-19.515-6.537-4.767-.008-16.527 9.436-35.258 28.287-10.829-6.648-16.354-9.418-16.354-9.418-3.438.035-39.115 13.684-54.733 13.684-15.616 0-43.341-37.073-57.721-37.073s6.482.854-38.083.262c-44.564-.596-104.8-36.136-111.681-61.778-5.042-18.791-36.948 27.353-62.861 27.353-25.914 0-80.412-106.535-103.655-106.535-17.723 0-60.289 110.839-70.399 110.839-10.108 0-9.199-4.304-19.402-4.304-10.205 0-56.087 45.732-63.992 45.223-7.905-.511-7.751-6.351-19.513-6.37-7.843-.013-34.581 25.7-80.216 76.7h1421.162c-55.988-43.006-85.253-57.837-85.253-57.837z"/></defs><clipPath id="j"><use xlink:href="#i" overflow="visible"/></clipPath><linearGradient id="k" gradientUnits="userSpaceOnUse" x1="1148.506" y1="337.647" x2="1131.363" y2="573.738" gradientTransform="scale(1 -1) rotate(-4.152 -10367.458 40.608)"><stop offset="0" stop-color="#fff" stop-opacity="0"/><stop offset=".749" stop-color="#fff"/></linearGradient><path clip-path="url(#j)" fill="url(#k)" d="M1029.352 260.164l85.051 236.716 135.872-220.558-216.677-15.732"/><defs><path id="l" d="M1464.219 569.169c-3.438.035-39.115 13.601-54.733 13.601-15.615 0-43.341-37.114-57.722-37.114-14.38 0 6.483.834-38.083.239-44.563-.596-164.729-179.949-175.681-177.147-4.237 1.084-31.593 48.775-42.569 52.039-6.132 1.822-17.479 10.212-31.092 21.307 69.011-.851 37.277 67.568 23.601 79.045-25.16 21.112-112.739-5.369-122.854-5.383-10.107 0-9.199-4.306-19.402-4.306-10.205 0-56.088 45.732-63.991 45.223-7.906-.511-7.753-6.518-19.515-6.537-4.767-.008-16.527 9.436-35.258 28.287-10.829-6.648-16.354-9.418-16.354-9.418-3.438.035-39.115 13.684-54.733 13.684-15.616 0-43.341-37.073-57.721-37.073s6.482.854-38.083.262c-44.564-.596-104.8-36.136-111.681-61.778-5.042-18.791-36.948 27.353-62.861 27.353-25.914 0-80.412-106.535-103.655-106.535-17.723 0-60.289 110.839-70.399 110.839-10.108 0-9.199-4.304-19.402-4.304-10.205 0-56.087 45.732-63.992 45.223-7.905-.511-7.751-6.351-19.513-6.37-7.843-.013-34.581 25.7-80.216 76.7h1421.162c-55.988-43.006-85.253-57.837-85.253-57.837z"/></defs><clipPath id="m"><use xlink:href="#l" overflow="visible"/></clipPath><linearGradient id="n" gradientUnits="userSpaceOnUse" x1="531.41" y1="493.834" x2="531.41" y2="303.72" gradientTransform="matrix(1 0 0 -1 84 871)"><stop offset="0" stop-color="#fff" stop-opacity="0"/><stop offset="1" stop-color="#fff" stop-opacity=".8"/></linearGradient><circle clip-path="url(#m)" fill="url(#n)" cx="615.41" cy="472.223" r="95.057"/><defs><path id="o" d="M1464.219 569.169c-3.438.035-39.115 13.601-54.733 13.601-15.615 0-43.341-37.114-57.722-37.114-14.38 0 6.483.834-38.083.239-44.563-.596-164.729-179.949-175.681-177.147-4.237 1.084-31.593 48.775-42.569 52.039-6.132 1.822-17.479 10.212-31.092 21.307 69.011-.851 37.277 67.568 23.601 79.045-25.16 21.112-112.739-5.369-122.854-5.383-10.107 0-9.199-4.306-19.402-4.306-10.205 0-56.088 45.732-63.991 45.223-7.906-.511-7.753-6.518-19.515-6.537-4.767-.008-16.527 9.436-35.258 28.287-10.829-6.648-16.354-9.418-16.354-9.418-3.438.035-39.115 13.684-54.733 13.684-15.616 0-43.341-37.073-57.721-37.073s6.482.854-38.083.262c-44.564-.596-104.8-36.136-111.681-61.778-5.042-18.791-36.948 27.353-62.861 27.353-25.914 0-80.412-106.535-103.655-106.535-17.723 0-60.289 110.839-70.399 110.839-10.108 0-9.199-4.304-19.402-4.304-10.205 0-56.087 45.732-63.992 45.223-7.905-.511-7.751-6.351-19.513-6.37-7.843-.013-34.581 25.7-80.216 76.7h1421.162c-55.988-43.006-85.253-57.837-85.253-57.837z"/></defs><clipPath id="p"><use xlink:href="#o" overflow="visible"/></clipPath><linearGradient id="q" gradientUnits="userSpaceOnUse" x1="940.092" y1="299.431" x2="940.092" y2="480.088" gradientTransform="matrix(1 0 0 -1 84 871)"><stop offset="0" stop-color="#fff" stop-opacity=".8"/><stop offset=".748" stop-color="#fff"/></linearGradient><circle clip-path="url(#p)" fill="url(#q)" cx="1024.092" cy="481.24" r="90.329"/></g></g><path opacity=".3" fill="#4473E6" enable-background="new" d="M415.038 454.272L351.004 588H263.43l-5.196-9.764"/><path fill="none" d="M412.054 438.981l-67.181-116.174h-89.835l74.152 128.19-74.151 128.193h89.835l67.181-116.174a23.972 23.972 0 0 0-.001-24.035z"/><path fill="#FFC107" d="M373.516 527.654l-21.291-36.833-51.118 88.369h43.767l29.223-50.534z"/><path fill="none" d="M412.054 438.981l-67.181-116.174h-89.835l74.152 128.19-74.151 128.193h89.835l67.181-116.174a23.972 23.972 0 0 0-.001-24.035z"/><path fill="#0F9D58" d="M329.19 450.999l23.035 39.822-51.118 88.369h-46.068z"/><path fill="none" d="M412.054 438.981l-67.181-116.174h-89.835l74.152 128.19-74.151 128.193h89.835l67.181-116.174a23.972 23.972 0 0 0-.001-24.035z"/><path opacity=".2" fill="#BF360C" enable-background="new" d="M344.874 577.188h-42.605l-1.162 2.002h43.767l29.223-50.534-.581-1.002z"/><path fill="none" d="M412.054 438.981l-67.181-116.174h-89.835l74.152 128.19-74.151 128.193h89.835l67.181-116.174a23.972 23.972 0 0 0-.001-24.035z"/><path opacity=".2" fill="#263238" enable-background="new" d="M256.201 577.188l-1.162 2.002h46.068l1.162-2.002z"/><path fill="none" d="M412.054 438.981l-67.181-116.174h-89.835l74.152 128.19-74.151 128.193h89.835l67.181-116.174a23.972 23.972 0 0 0-.001-24.035z"/><path opacity=".2" fill="#FFF" enable-background="new" d="M255.039 579.19h1.162l73.57-127.189-.581-1.002z"/><path fill="none" d="M412.054 438.981l-67.181-116.174h-89.835l74.152 128.19-74.151 128.193h89.835l67.181-116.174a23.972 23.972 0 0 0-.001-24.035z"/><radialGradient id="r" cx="205.77" cy="207.14" r="88.845" gradientTransform="matrix(1 0 0 -1 168 735)" gradientUnits="userSpaceOnUse"><stop offset="0" stop-color="#bf360c" stop-opacity=".2"/><stop offset="1" stop-color="#bf360c" stop-opacity=".02"/></radialGradient><path fill="url(#r)" d="M374.097 528.656l-21.872-37.835-5.37 9.272z"/><path fill="none" d="M412.054 438.981l-67.181-116.174h-89.835l74.152 128.19-74.151 128.193h89.835l67.181-116.174a23.972 23.972 0 0 0-.001-24.035z"/><radialGradient id="s" cx="205.519" cy="206.575" r="89.381" gradientTransform="matrix(1 0 0 -1 168 735)" gradientUnits="userSpaceOnUse"><stop offset="0" stop-color="#263238" stop-opacity=".2"/><stop offset="1" stop-color="#263238" stop-opacity=".02"/></radialGradient><path fill="url(#s)" d="M346.855 500.093l5.37-9.272-23.035-39.822-10.995 19.029z"/><path fill="none" d="M412.054 438.981l-67.181-116.174h-89.835l74.152 128.19-74.151 128.193h89.835l67.181-116.174a23.972 23.972 0 0 0-.001-24.035z"/><path fill="#4285F4" d="M301.107 322.809h-46.068l119.058 205.847 23.015-39.8.019-.038z"/><path fill="none" d="M412.054 438.981l-67.181-116.174h-89.835l74.152 128.19-74.151 128.193h89.835l67.181-116.174a23.972 23.972 0 0 0-.001-24.035z"/><path fill="#DB4437" d="M412.054 463.018a23.965 23.965 0 0 0 0-24.035l-67.181-116.174h-43.766l96.024 166.011 14.923-25.802z"/><path fill="none" d="M412.054 438.981l-67.181-116.174h-89.835l74.152 128.19-74.151 128.193h89.835l67.181-116.174a23.972 23.972 0 0 0-.001-24.035z"/><path opacity=".2" fill="#1A237E" enable-background="new" d="M397.131 488.818l-.581-.982-22.453 38.816-117.896-203.843h-1.162l119.058 205.847 23.015-39.8z"/><path fill="none" d="M412.054 438.981l-67.181-116.174h-89.835l74.152 128.19-74.151 128.193h89.835l67.181-116.174a23.972 23.972 0 0 0-.001-24.035z"/><path opacity=".2" fill="#FFF" enable-background="new" d="M344.874 324.812l67.181 116.173c1.983 3.428 3.004 7.212 3.165 11.017.181-4.486-.841-9.014-3.165-13.02l-67.181-116.174h-89.835l1.162 2.004h88.673z"/><path fill="none" d="M412.054 438.981l-67.181-116.174h-89.835l74.152 128.19-74.151 128.193h89.835l67.181-116.174a23.972 23.972 0 0 0-.001-24.035z"/><path opacity=".2" fill="#3E2723" enable-background="new" d="M397.131 488.818l14.923-25.802c2.323-4.006 3.345-8.531 3.165-13.02-.161 3.806-1.182 7.594-3.165 11.017l-15.504 26.821.581.984z"/><path fill="none" d="M412.054 438.981l-67.181-116.174h-89.835l74.152 128.19-74.151 128.193h89.835l67.181-116.174a23.972 23.972 0 0 0-.001-24.035z"/><radialGradient id="t" cx="85.035" cy="410.188" r="269.102" gradientTransform="matrix(1 0 0 -1 168 735)" gradientUnits="userSpaceOnUse"><stop offset="0" stop-color="#fff" stop-opacity=".1"/><stop offset="1" stop-color="#fff" stop-opacity="0"/></radialGradient><path fill="url(#t)" d="M412.054 438.981l-67.181-116.174h-89.835l74.152 128.19-74.151 128.193h89.835l67.181-116.174a23.972 23.972 0 0 0-.001-24.035z"/><path fill="#757575" d="M740.682 345.202h61.292c62.414 0 101.592 41.423 101.592 99.55 0 58.386-39.197 99.546-101.592 99.546h-61.292V345.202zm62.355 168.932c43.443 0 70.364-24.115 70.364-69.382 0-45.009-26.921-69.384-70.364-69.384h-32.189v138.766h32.189z"/><path fill="none" d="M510.341 339.993h615.376v217.205H510.341z"/><path fill="#757575" d="M715.505 435.719h-95.481v29.563h67.318c-2.222 15.081-7.451 26.839-15.281 34.691-9.976 9.975-25.56 20.95-52.898 20.95-42.164 0-75.133-33.991-75.133-76.152 0-42.164 32.969-76.152 75.133-76.152 22.734 0 39.357 8.95 51.616 20.448l20.189-20.19c-17.127-16.364-39.859-28.884-71.807-28.884-57.746 0-106.299 47.012-106.299 104.778 0 57.745 48.553 104.776 106.299 104.776 31.166 0 54.679-10.217 73.088-29.386 18.909-18.909 24.798-45.487 24.798-66.959.002-6.648-.521-12.377-1.542-17.483zm410.252 0h-95.48v29.563h67.318c-2.223 15.081-7.45 26.839-15.282 34.691-9.975 9.975-25.559 20.95-52.899 20.95-42.162 0-75.131-33.991-75.131-76.152 0-42.164 32.969-76.152 75.131-76.152 22.735 0 39.36 8.95 51.618 20.448l20.189-20.19c-17.126-16.364-39.859-28.884-71.808-28.884-57.746 0-106.296 47.012-106.296 104.778 0 57.745 48.551 104.776 106.296 104.776 31.168 0 54.682-10.217 73.089-29.386 18.909-18.909 24.797-45.487 24.797-66.959 0-6.648-.52-12.377-1.542-17.483z"/><path d="M1264.366 423.926v-80.974h24.768c12.363 0 22.297 3.731 29.799 11.196 7.502 7.464 11.254 17.229 11.254 29.29 0 12.14-3.752 21.923-11.254 29.348-7.502 7.427-17.436 11.14-29.799 11.14h-24.768zm10.405-71.022v61.069h14.363c9.424 0 16.85-2.694 22.279-8.086 5.428-5.39 8.143-12.873 8.143-22.449 0-9.499-2.715-16.964-8.143-22.392-5.43-5.429-12.855-8.143-22.279-8.143h-14.363zm89.116 72.831c-8.143 0-14.854-2.788-20.13-8.369-5.279-5.578-7.917-12.627-7.917-21.148 0-8.442 2.562-15.474 7.69-21.091 5.126-5.616 11.686-8.426 19.678-8.426 8.217 0 14.759 2.658 19.621 7.973 4.863 5.315 7.295 12.762 7.295 22.336l-.113 1.131h-43.54c.149 5.429 1.96 9.802 5.429 13.119 3.467 3.318 7.613 4.976 12.439 4.976 6.634 0 11.836-3.316 15.607-9.952l9.273 4.523c-2.488 4.676-5.938 8.332-10.348 10.971-4.41 2.637-9.405 3.957-14.984 3.957zm-16.624-36.189h31.778c-.302-3.845-1.866-7.029-4.693-9.557-2.827-2.524-6.616-3.788-11.366-3.788-3.92 0-7.294 1.207-10.121 3.619-2.828 2.413-4.694 5.655-5.598 9.726zm78.146 34.38h-10.404l-22.393-55.415h11.309l16.285 42.975h.227l16.512-42.975h11.083l-22.619 55.415zm41.615-34.72v34.72h-10.404v-80.974h47.273v9.952h-36.869v26.576h33.25v9.726h-33.25zm68.307 36.529c-8.143 0-14.854-2.788-20.13-8.369-5.278-5.578-7.917-12.627-7.917-21.148 0-8.442 2.562-15.474 7.691-21.091 5.125-5.616 11.686-8.426 19.678-8.426 8.217 0 14.758 2.658 19.621 7.973 4.863 5.315 7.295 12.762 7.295 22.336l-.113 1.131h-43.541c.15 5.429 1.96 9.802 5.429 13.119 3.467 3.318 7.614 4.976 12.44 4.976 6.633 0 11.836-3.316 15.606-9.952l9.273 4.523c-2.487 4.676-5.937 8.332-10.348 10.971-4.41 2.637-9.405 3.957-14.984 3.957zm-16.624-36.189h31.778c-.302-3.845-1.865-7.029-4.693-9.557-2.826-2.524-6.615-3.788-11.365-3.788-3.921 0-7.295 1.207-10.121 3.619-2.828 2.413-4.694 5.655-5.599 9.726zm95.335 18.999c0 4.826-2.111 8.897-6.333 12.214-4.224 3.317-9.538 4.977-15.946 4.977-5.58 0-10.48-1.452-14.701-4.354-4.225-2.901-7.238-6.729-9.048-11.479l9.273-3.958c1.356 3.318 3.336 5.9 5.938 7.747 2.601 1.848 5.446 2.771 8.538 2.771 3.316 0 6.088-.716 8.312-2.149 2.223-1.431 3.336-3.127 3.336-5.089 0-3.543-2.714-6.144-8.143-7.803l-9.5-2.375c-10.782-2.715-16.172-7.917-16.172-15.607 0-5.05 2.053-9.104 6.164-12.157 4.107-3.054 9.367-4.58 15.775-4.58 4.9 0 9.33 1.17 13.289 3.506 3.958 2.338 6.729 5.468 8.312 9.387l-9.273 3.845c-1.057-2.336-2.771-4.165-5.146-5.484-2.375-1.318-5.032-1.979-7.973-1.979-2.715 0-5.146.679-7.295 2.036-2.148 1.356-3.223 3.016-3.223 4.976 0 3.167 2.978 5.429 8.934 6.786l8.369 2.148c11.009 2.711 16.513 8.253 16.513 16.621zm30.421 16.285c-4.523 0-8.274-1.394-11.253-4.184-2.979-2.789-4.506-6.673-4.58-11.648v-30.987h-9.726v-9.5h9.726v-16.964h10.404v16.964h13.571v9.5h-13.571v27.594c0 3.695.716 6.203 2.148 7.521 1.432 1.319 3.055 1.979 4.863 1.979.829 0 1.641-.094 2.432-.282a12.59 12.59 0 0 0 2.205-.735l3.28 9.273c-2.713.978-5.88 1.469-9.499 1.469zm-378.681 120.134v-95.056h34.385c7.521 0 13.983 2.479 19.383 7.435 5.397 4.868 8.099 11.019 8.099 18.453 0 9.383-4.294 15.977-12.878 19.781v.531c4.867 1.593 8.762 4.36 11.684 8.298 2.92 3.938 4.381 8.43 4.381 13.475 0 7.789-2.834 14.251-8.497 19.383-5.489 5.134-12.26 7.7-20.312 7.7h-36.245zm12.214-83.373v29.074h22.171c4.336 0 7.966-1.46 10.887-4.381 2.92-3.008 4.381-6.416 4.381-10.223 0-3.717-1.417-7.08-4.248-10.09-2.834-2.921-6.33-4.381-10.488-4.381h-22.703zm0 40.492v31.198h24.561c4.425 0 8.186-1.548 11.284-4.646 3.008-3.098 4.514-6.771 4.514-11.02 0-4.159-1.549-7.787-4.646-10.886-3.099-3.098-6.992-4.646-11.682-4.646h-24.031zm89.214-24.296c9.027 0 16.15 2.413 21.374 7.235 5.222 4.825 7.833 11.44 7.833 19.848v40.094h-11.684v-9.027h-.53c-5.045 7.435-11.772 11.151-20.18 11.151-7.169 0-13.166-2.124-17.989-6.372-4.824-4.249-7.234-9.559-7.234-15.932 0-6.725 2.543-12.081 7.633-16.063 5.089-3.983 11.883-5.975 20.379-5.975 7.256 0 13.23 1.328 17.922 3.983v-2.788c0-4.248-1.682-7.854-5.044-10.82-3.364-2.964-7.302-4.447-11.815-4.447-6.816 0-12.215 2.877-16.197 8.629l-10.754-6.771c5.929-8.496 14.69-12.745 26.286-12.745zm-15.799 47.263c0 3.187 1.349 5.842 4.049 7.966 2.699 2.124 5.863 3.187 9.493 3.187 5.132 0 9.712-1.902 13.74-5.709 4.026-3.805 6.04-8.274 6.04-13.409-3.806-3.008-9.116-4.514-15.931-4.514-4.958 0-9.094 1.195-12.413 3.585-3.318 2.389-4.978 5.355-4.978 8.894zm115.634-45.138l-40.757 93.728h-12.612l15.135-32.791-26.817-60.937h13.275l19.383 46.73h.266l18.852-46.73h13.275zm34.517 67.176c-9.559 0-17.437-3.273-23.631-9.824-6.195-6.549-9.293-14.823-9.293-24.826 0-9.911 3.008-18.165 9.027-24.76 6.018-6.592 13.719-9.891 23.101-9.891 9.646 0 17.325 3.12 23.034 9.36 5.708 6.239 8.562 14.98 8.562 26.22l-.133 1.327h-51.112c.177 6.373 2.3 11.507 6.372 15.4 4.07 3.896 8.938 5.842 14.604 5.842 7.787 0 13.895-3.894 18.321-11.684l10.886 5.311c-2.92 5.489-6.97 9.781-12.146 12.878-5.178 3.097-11.044 4.647-17.592 4.647zm-19.516-42.484h37.307c-.355-4.514-2.191-8.251-5.51-11.218-3.319-2.964-7.768-4.447-13.343-4.447-4.603 0-8.563 1.417-11.882 4.248-3.319 2.834-5.51 6.638-6.572 11.417zm73.682 40.36h-12.214v-65.052h11.683v10.62h.531c1.238-3.451 3.783-6.393 7.634-8.828 3.851-2.434 7.634-3.651 11.351-3.651 3.539 0 6.549.531 9.027 1.594l-3.717 11.815c-1.506-.618-3.896-.93-7.169-.93-4.603 0-8.608 1.858-12.015 5.576-3.408 3.717-5.111 8.055-5.111 13.011v35.845zm35.976-65.052h11.683v9.027h.531c1.858-3.187 4.713-5.842 8.563-7.966 3.85-2.124 7.854-3.187 12.014-3.187 7.967 0 14.094 2.28 18.388 6.838 4.292 4.56 6.438 11.042 6.438 19.449v40.89h-12.213V504.87c-.266-10.62-5.622-15.931-16.064-15.931-4.869 0-8.94 1.971-12.214 5.907-3.275 3.939-4.912 8.652-4.912 14.14v35.978h-12.214v-65.052z" enable-background="new" fill="#757575"/></svg>